<svg width="76" height="76" viewBox="0 0 76 76" fill="none" xmlns="http://www.w3.org/2000/svg">
<g filter="url(#filter0_d_1938_2488)">
<circle cx="38" cy="38" r="31" fill="black"/>
<circle cx="38" cy="38" r="32.5" stroke="white" stroke-width="3"/>
</g>
<path d="M34 22V54.8369H22V22H34Z" fill="white"/>
<path d="M42.7266 22C44.0719 22 45.4173 22.1311 46.7627 22.3936C48.1083 22.6233 49.3232 23.0502 50.4062 23.6738C51.4893 24.2646 52.3752 25.0855 53.0645 26.1357C53.7536 27.186 54.0986 28.5149 54.0986 30.123C54.0986 32.3219 53.4915 34.0778 52.2773 35.3906C51.063 36.7034 49.4051 37.5893 47.3047 38.0488C48.3549 38.2457 49.3229 38.5417 50.209 38.9355C51.128 39.3294 51.9159 39.8383 52.5723 40.4619C53.2286 41.0855 53.7376 41.8405 54.0986 42.7266C54.4924 43.5798 54.6895 44.581 54.6895 45.7295C54.6894 47.797 54.2955 49.438 53.5078 50.6523C52.7201 51.8339 51.6862 52.7368 50.4062 53.3604C49.1591 53.9839 47.7312 54.3939 46.123 54.5908C44.5149 54.7549 42.89 54.8369 41.249 54.8369H35V48.0928H37.3105C37.8357 48.0928 38.3776 48.0428 38.9355 47.9443C39.5262 47.8131 40.0513 47.616 40.5107 47.3535C40.9702 47.091 41.3482 46.7469 41.6436 46.3203C41.9717 45.8937 42.1357 45.3517 42.1357 44.6953C42.1357 43.9734 41.9876 43.3993 41.6924 42.9727C41.4298 42.546 41.0689 42.217 40.6094 41.9873C40.1827 41.7248 39.6898 41.5608 39.1318 41.4951C38.574 41.3967 37.9998 41.3477 37.4092 41.3477H35V35.1943H37.1143C37.6392 35.1943 38.1645 35.1443 38.6895 35.0459C39.2473 34.9474 39.7394 34.7834 40.166 34.5537C40.6255 34.324 41.0034 34.012 41.2988 33.6182C41.594 33.1916 41.7412 32.6502 41.7412 31.9941C41.7412 31.3707 41.6101 30.8456 41.3477 30.4189C41.1179 29.9923 40.7899 29.6633 40.3633 29.4336C39.9694 29.171 39.5095 28.991 38.9844 28.8926C38.4593 28.7941 37.9342 28.7441 37.4092 28.7441H35V22H42.7266Z" fill="white"/>
<defs>
<filter id="filter0_d_1938_2488" x="0" y="0" width="76" height="76" filterUnits="userSpaceOnUse" color-interpolation-filters="sRGB">
<feFlood flood-opacity="0" result="BackgroundImageFix"/>
<feColorMatrix in="SourceAlpha" type="matrix" values="0 0 0 0 0 0 0 0 0 0 0 0 0 0 0 0 0 0 127 0" result="hardAlpha"/>
<feOffset/>
<feGaussianBlur stdDeviation="2"/>
<feComposite in2="hardAlpha" operator="out"/>
<feColorMatrix type="matrix" values="0 0 0 0 0 0 0 0 0 0 0 0 0 0 0 0 0 0 0.25 0"/>
<feBlend mode="normal" in2="BackgroundImageFix" result="effect1_dropShadow_1938_2488"/>
<feBlend mode="normal" in="SourceGraphic" in2="effect1_dropShadow_1938_2488" result="shape"/>
</filter>
</defs>
</svg>
