<svg width="76" height="76" viewBox="0 0 76 76" fill="none" xmlns="http://www.w3.org/2000/svg">
<g filter="url(#filter0_d_1938_2532)">
<circle cx="38" cy="38" r="31" fill="black"/>
<circle cx="38" cy="38" r="32.5" stroke="white" stroke-width="3"/>
</g>
<path d="M35.3418 54.8369H23V22H35.3418V54.8369Z" fill="white"/>
<path d="M40.7725 22C46.155 22 50.2905 23.3619 53.1787 26.0859C56.0669 28.7772 57.5107 32.8967 57.5107 38.4434C57.5107 41.0361 57.1168 43.35 56.3291 45.3848C55.5743 47.4194 54.4752 49.1425 53.0312 50.5537C51.5872 51.9321 49.8312 52.999 47.7637 53.7539C45.696 54.476 43.3653 54.8369 40.7725 54.8369H36.3418V46.9111H38.2129C39.3942 46.9111 40.3784 46.6641 41.166 46.1719C41.9537 45.6796 42.5776 45.0396 43.0371 44.252C43.5293 43.4644 43.8574 42.5621 44.0215 41.5449C44.2184 40.5276 44.3174 39.4935 44.3174 38.4434C44.3174 37.4261 44.2353 36.4249 44.0713 35.4404C43.9072 34.423 43.5952 33.5031 43.1357 32.6826C42.7091 31.8623 42.1019 31.2061 41.3145 30.7139C40.5268 30.1887 39.5249 29.9258 38.3105 29.9258H36.3418V22H40.7725Z" fill="white"/>
<defs>
<filter id="filter0_d_1938_2532" x="0" y="0" width="76" height="76" filterUnits="userSpaceOnUse" color-interpolation-filters="sRGB">
<feFlood flood-opacity="0" result="BackgroundImageFix"/>
<feColorMatrix in="SourceAlpha" type="matrix" values="0 0 0 0 0 0 0 0 0 0 0 0 0 0 0 0 0 0 127 0" result="hardAlpha"/>
<feOffset/>
<feGaussianBlur stdDeviation="2"/>
<feComposite in2="hardAlpha" operator="out"/>
<feColorMatrix type="matrix" values="0 0 0 0 0 0 0 0 0 0 0 0 0 0 0 0 0 0 0.25 0"/>
<feBlend mode="normal" in2="BackgroundImageFix" result="effect1_dropShadow_1938_2532"/>
<feBlend mode="normal" in="SourceGraphic" in2="effect1_dropShadow_1938_2532" result="shape"/>
</filter>
</defs>
</svg>
