<svg width="76" height="76" viewBox="0 0 76 76" fill="none" xmlns="http://www.w3.org/2000/svg">
<g filter="url(#filter0_d_2_316)">
<circle cx="38" cy="38" r="31" fill="black"/>
<circle cx="38" cy="38" r="32.5" stroke="white" stroke-width="3"/>
</g>
<path d="M32.5021 56V46.709H42.6809V56H32.5021ZM51 27.7445C51 29.0561 50.7879 30.1674 50.3638 31.0783C49.9397 31.9892 49.4014 32.809 48.7489 33.5377C48.0965 34.2664 47.395 34.9404 46.6447 35.5598C45.8943 36.1792 45.1929 36.8351 44.5404 37.5273C43.8879 38.2196 43.3496 38.9847 42.9255 39.8227C42.5014 40.6243 42.2894 41.5899 42.2894 42.7193V43.4845H32.8936V42.774C32.8936 41.1709 33.0404 39.8227 33.334 38.7297C33.6603 37.6366 34.0518 36.7258 34.5085 35.997C34.9979 35.2683 35.5035 34.6672 36.0255 34.1935C36.5801 33.7198 37.0858 33.3008 37.5426 32.9365C38.0319 32.5357 38.4234 32.1349 38.717 31.7341C39.0433 31.2969 39.2064 30.7868 39.2064 30.2038C39.2064 29.6937 39.0433 29.293 38.717 29.0015C38.4234 28.71 38.0645 28.5096 37.6404 28.4003C37.2163 28.2546 36.7596 28.1635 36.2702 28.127C35.8135 28.0906 35.422 28.0724 35.0957 28.0724C33.9539 28.0724 32.7957 28.2181 31.6213 28.5096C30.4794 28.7646 29.3702 29.1472 28.2936 29.6573L28 20.9129C29.7291 20.2935 31.3929 19.8198 32.9915 19.4919C34.6227 19.164 36.3518 19 38.1787 19C39.4184 19 40.7887 19.1275 42.2894 19.3826C43.7901 19.6012 45.1766 20.0384 46.4489 20.6942C47.7539 21.3501 48.8305 22.2427 49.6787 23.3722C50.5596 24.5017 51 25.9591 51 27.7445Z" fill="white"/>
<defs>
<filter id="filter0_d_2_316" x="0" y="0" width="76" height="76" filterUnits="userSpaceOnUse" color-interpolation-filters="sRGB">
<feFlood flood-opacity="0" result="BackgroundImageFix"/>
<feColorMatrix in="SourceAlpha" type="matrix" values="0 0 0 0 0 0 0 0 0 0 0 0 0 0 0 0 0 0 127 0" result="hardAlpha"/>
<feOffset/>
<feGaussianBlur stdDeviation="2"/>
<feComposite in2="hardAlpha" operator="out"/>
<feColorMatrix type="matrix" values="0 0 0 0 0 0 0 0 0 0 0 0 0 0 0 0 0 0 0.25 0"/>
<feBlend mode="normal" in2="BackgroundImageFix" result="effect1_dropShadow_2_316"/>
<feBlend mode="normal" in="SourceGraphic" in2="effect1_dropShadow_2_316" result="shape"/>
</filter>
</defs>
</svg>
